<svg width="18" height="15" fill="none" xmlns="http://www.w3.org/2000/svg"><path d="M0 15v-4.457c0-1.265.256-2.558.767-3.879A16.806 16.806 0 0 1 2.791 2.93C3.63 1.76 4.538.784 5.518 0l4.006 2.29a20.144 20.144 0 0 0-1.96 3.797c-.497 1.32-.746 2.792-.746 4.415V15H0Z" fill="#FF6900"/><path d="M7.697 15v-4.457c0-1.265.256-2.558.767-3.879A16.805 16.805 0 0 1 10.49 2.93C11.327 1.76 12.236.784 13.216 0l4.005 2.29a20.15 20.15 0 0 0-1.96 3.797c-.497 1.32-.745 2.792-.745 4.415V15H7.697Z" fill="#FF6900"/></svg>