<svg width="25" height="24" fill="none" xmlns="http://www.w3.org/2000/svg"><g clip-path="url(#a)" stroke-width="2" stroke-linecap="round" stroke-linejoin="round"><path d="M13.518 20.687c-.333.119-.673.223-1.018.313A12 12 0 0 1 4 6a12 12 0 0 0 8.5-3A12 12 0 0 0 21 6c.433 1.472.575 2.998.436 4.495" stroke="#FF6900"/><path d="M21.5 15H19a1.5 1.5 0 1 0 0 3h1a1.5 1.5 0 1 1 0 3h-2.5M19.5 21v1m0-8v1" stroke="#040404"/></g><defs><clipPath id="a"><path fill="#fff" transform="translate(.5)" d="M0 0h24v24H0z"/></clipPath></defs></svg>