<svg width="25" height="24" fill="none" xmlns="http://www.w3.org/2000/svg"><g clip-path="url(#a)" stroke-width="2" stroke-linecap="round" stroke-linejoin="round"><path d="M4.5 14v-3a8 8 0 1 1 16 0v3M18.5 19c0 1.657-2.686 3-6 3" stroke="#FF6900"/><path d="M4.5 14a2 2 0 0 1 2-2h1a2 2 0 0 1 2 2v3a2 2 0 0 1-2 2h-1a2 2 0 0 1-2-2v-3Z" stroke="#FF6900"/><path d="M15.5 14a2 2 0 0 1 2-2h1a2 2 0 0 1 2 2v3a2 2 0 0 1-2 2h-1a2 2 0 0 1-2-2v-3Z" stroke="#040404"/></g><defs><clipPath id="a"><path fill="#fff" transform="translate(.5)" d="M0 0h24v24H0z"/></clipPath></defs></svg>