<svg width="25" height="24" fill="none" xmlns="http://www.w3.org/2000/svg"><g clip-path="url(#a)" stroke-width="2" stroke-linecap="round" stroke-linejoin="round"><path d="M10.5 20.778a8.943 8.943 0 0 1-2.48-.97M14.5 3.223a9.003 9.003 0 0 1 0 17.554M5.079 17.094a8.963 8.963 0 0 1-1.227-2.592" stroke="#FF6900"/><path d="M3.624 10.5c.16-.95.468-1.85.9-2.675l.169-.305M7.407 4.579A8.954 8.954 0 0 1 10.5 3.223M12.5 9l-2 3h4l-2 3" stroke="#363636"/></g><defs><clipPath id="a"><path fill="#fff" transform="translate(.5)" d="M0 0h24v24H0z"/></clipPath></defs></svg>